<mxfile host="Electron" agent="Mozilla/5.0 (X11; Linux x86_64) AppleWebKit/537.36 (KHTML, like Gecko) draw.io/26.1.1 Chrome/134.0.6998.205 Electron/35.2.1 Safari/537.36" version="26.1.1">
  <diagram name="CreateNewPlan" id="tZ0ytR0-mEbCzrp-FiRG">
    <mxGraphModel dx="1383" dy="636" grid="1" gridSize="10" guides="1" tooltips="1" connect="1" arrows="1" fold="1" page="1" pageScale="1" pageWidth="2336" pageHeight="1654" math="0" shadow="0">
      <root>
        <mxCell id="0" />
        <mxCell id="1" parent="0" />
        <mxCell id="IUGxkRK6oalnHVLEm6Ad-2" value="TripPlanController" style="rounded=0;whiteSpace=wrap;html=1;fillColor=#FF6666;" vertex="1" parent="1">
          <mxGeometry x="580" y="30" width="100" height="30" as="geometry" />
        </mxCell>
        <mxCell id="IUGxkRK6oalnHVLEm6Ad-3" value="" style="endArrow=none;dashed=1;html=1;rounded=0;entryX=0.5;entryY=1;entryDx=0;entryDy=0;" edge="1" parent="1">
          <mxGeometry width="50" height="50" relative="1" as="geometry">
            <mxPoint x="290" y="1320" as="sourcePoint" />
            <mxPoint x="292" y="56" as="targetPoint" />
          </mxGeometry>
        </mxCell>
        <mxCell id="IUGxkRK6oalnHVLEm6Ad-5" value="" style="endArrow=classic;html=1;rounded=0;" edge="1" parent="1">
          <mxGeometry width="50" height="50" relative="1" as="geometry">
            <mxPoint x="292" y="96" as="sourcePoint" />
            <mxPoint x="462" y="96" as="targetPoint" />
          </mxGeometry>
        </mxCell>
        <mxCell id="IUGxkRK6oalnHVLEm6Ad-6" value="clickPlusButton()" style="edgeLabel;html=1;align=center;verticalAlign=middle;resizable=0;points=[];" connectable="0" vertex="1" parent="IUGxkRK6oalnHVLEm6Ad-5">
          <mxGeometry x="0.0118" y="-1" relative="1" as="geometry">
            <mxPoint as="offset" />
          </mxGeometry>
        </mxCell>
        <mxCell id="IUGxkRK6oalnHVLEm6Ad-11" value="User" style="shape=umlActor;verticalLabelPosition=bottom;verticalAlign=top;html=1;" vertex="1" parent="1">
          <mxGeometry x="280" width="20" height="40" as="geometry" />
        </mxCell>
        <mxCell id="IUGxkRK6oalnHVLEm6Ad-20" value="TripDetails" style="rounded=0;whiteSpace=wrap;html=1;fillColor=#A9C4EB;" vertex="1" parent="1">
          <mxGeometry x="1128" y="30" width="90" height="30" as="geometry" />
        </mxCell>
        <mxCell id="IUGxkRK6oalnHVLEm6Ad-21" value="TripPlan" style="rounded=0;whiteSpace=wrap;html=1;fillColor=#A9C4EB;" vertex="1" parent="1">
          <mxGeometry x="700" y="30" width="110" height="30" as="geometry" />
        </mxCell>
        <mxCell id="IUGxkRK6oalnHVLEm6Ad-22" value="" style="endArrow=none;dashed=1;html=1;rounded=0;entryX=0.5;entryY=1;entryDx=0;entryDy=0;" edge="1" parent="1" target="IUGxkRK6oalnHVLEm6Ad-2">
          <mxGeometry width="50" height="50" relative="1" as="geometry">
            <mxPoint x="630" y="680" as="sourcePoint" />
            <mxPoint x="640" y="260" as="targetPoint" />
            <Array as="points">
              <mxPoint x="630" y="230" />
            </Array>
          </mxGeometry>
        </mxCell>
        <mxCell id="IUGxkRK6oalnHVLEm6Ad-23" value="" style="endArrow=none;dashed=1;html=1;rounded=0;entryX=0.5;entryY=1;entryDx=0;entryDy=0;" edge="1" parent="1" target="IUGxkRK6oalnHVLEm6Ad-20">
          <mxGeometry width="50" height="50" relative="1" as="geometry">
            <mxPoint x="1173" y="1320" as="sourcePoint" />
            <mxPoint x="1048" y="260" as="targetPoint" />
          </mxGeometry>
        </mxCell>
        <mxCell id="IUGxkRK6oalnHVLEm6Ad-24" value="" style="endArrow=none;dashed=1;html=1;rounded=0;entryX=0.5;entryY=1;entryDx=0;entryDy=0;" edge="1" parent="1">
          <mxGeometry width="50" height="50" relative="1" as="geometry">
            <mxPoint x="760" y="1320" as="sourcePoint" />
            <mxPoint x="757" y="60" as="targetPoint" />
            <Array as="points">
              <mxPoint x="756" y="370" />
            </Array>
          </mxGeometry>
        </mxCell>
        <mxCell id="IUGxkRK6oalnHVLEm6Ad-27" value="" style="html=1;verticalAlign=bottom;labelBackgroundColor=none;endArrow=open;endFill=0;dashed=1;rounded=0;" edge="1" parent="1">
          <mxGeometry width="160" relative="1" as="geometry">
            <mxPoint x="750" y="236" as="sourcePoint" />
            <mxPoint x="630" y="236" as="targetPoint" />
          </mxGeometry>
        </mxCell>
        <mxCell id="IUGxkRK6oalnHVLEm6Ad-28" value="Text" style="edgeLabel;html=1;align=center;verticalAlign=middle;resizable=0;points=[];" connectable="0" vertex="1" parent="IUGxkRK6oalnHVLEm6Ad-27">
          <mxGeometry x="-0.0743" relative="1" as="geometry">
            <mxPoint as="offset" />
          </mxGeometry>
        </mxCell>
        <mxCell id="IUGxkRK6oalnHVLEm6Ad-29" value="returnFailMessage&lt;span style=&quot;background-color: light-dark(#ffffff, var(--ge-dark-color, #121212)); color: light-dark(rgb(0, 0, 0), rgb(255, 255, 255));&quot;&gt;()&lt;/span&gt;" style="edgeLabel;html=1;align=center;verticalAlign=middle;resizable=0;points=[];" connectable="0" vertex="1" parent="IUGxkRK6oalnHVLEm6Ad-27">
          <mxGeometry x="-0.0963" relative="1" as="geometry">
            <mxPoint as="offset" />
          </mxGeometry>
        </mxCell>
        <mxCell id="IUGxkRK6oalnHVLEm6Ad-32" value="DailyPlanController" style="rounded=0;whiteSpace=wrap;html=1;fillColor=#FF6666;" vertex="1" parent="1">
          <mxGeometry x="990" y="30" width="130" height="30" as="geometry" />
        </mxCell>
        <mxCell id="IUGxkRK6oalnHVLEm6Ad-36" value="" style="endArrow=none;dashed=1;html=1;rounded=0;entryX=0.5;entryY=1;entryDx=0;entryDy=0;" edge="1" parent="1">
          <mxGeometry width="50" height="50" relative="1" as="geometry">
            <mxPoint x="1059" y="1320" as="sourcePoint" />
            <mxPoint x="1054" y="60" as="targetPoint" />
            <Array as="points" />
          </mxGeometry>
        </mxCell>
        <mxCell id="IUGxkRK6oalnHVLEm6Ad-43" value="alt" style="shape=umlFrame;whiteSpace=wrap;html=1;pointerEvents=0;" vertex="1" parent="1">
          <mxGeometry x="250" y="180" width="530" height="170" as="geometry" />
        </mxCell>
        <mxCell id="IUGxkRK6oalnHVLEm6Ad-44" value="" style="endArrow=none;startArrow=none;endFill=0;startFill=0;endSize=8;html=1;verticalAlign=bottom;dashed=1;labelBackgroundColor=none;dashPattern=10 10;rounded=0;entryX=1;entryY=0.535;entryDx=0;entryDy=0;entryPerimeter=0;" edge="1" parent="1" target="IUGxkRK6oalnHVLEm6Ad-43">
          <mxGeometry width="160" relative="1" as="geometry">
            <mxPoint x="250" y="271" as="sourcePoint" />
            <mxPoint x="760" y="271" as="targetPoint" />
          </mxGeometry>
        </mxCell>
        <mxCell id="IUGxkRK6oalnHVLEm6Ad-49" value="[The user didn&#39;t omit destination/dates]" style="text;align=center;fontStyle=1;verticalAlign=middle;spacingLeft=3;spacingRight=3;strokeColor=none;rotatable=0;points=[[0,0.5],[1,0.5]];portConstraint=eastwest;html=1;" vertex="1" parent="1">
          <mxGeometry x="327" y="286" width="130" height="26" as="geometry" />
        </mxCell>
        <mxCell id="IUGxkRK6oalnHVLEm6Ad-51" value="GUITripPlan" style="rounded=0;whiteSpace=wrap;html=1;fillColor=#CC99FF;" vertex="1" parent="1">
          <mxGeometry x="390" y="30" width="150" height="30" as="geometry" />
        </mxCell>
        <mxCell id="IUGxkRK6oalnHVLEm6Ad-52" value="" style="endArrow=none;dashed=1;html=1;rounded=0;entryX=0.5;entryY=1;entryDx=0;entryDy=0;" edge="1" parent="1" target="IUGxkRK6oalnHVLEm6Ad-51">
          <mxGeometry width="50" height="50" relative="1" as="geometry">
            <mxPoint x="465" y="1320" as="sourcePoint" />
            <mxPoint x="630" y="260" as="targetPoint" />
          </mxGeometry>
        </mxCell>
        <mxCell id="IUGxkRK6oalnHVLEm6Ad-53" value="GUITripDetails" style="rounded=0;whiteSpace=wrap;html=1;fillColor=#CC99FF;" vertex="1" parent="1">
          <mxGeometry x="827" y="30" width="150" height="30" as="geometry" />
        </mxCell>
        <mxCell id="IUGxkRK6oalnHVLEm6Ad-54" value="" style="endArrow=none;dashed=1;html=1;rounded=0;entryX=0.5;entryY=1;entryDx=0;entryDy=0;" edge="1" parent="1" target="IUGxkRK6oalnHVLEm6Ad-53">
          <mxGeometry width="50" height="50" relative="1" as="geometry">
            <mxPoint x="902" y="1320" as="sourcePoint" />
            <mxPoint x="1067" y="260" as="targetPoint" />
          </mxGeometry>
        </mxCell>
        <mxCell id="IUGxkRK6oalnHVLEm6Ad-55" value="" style="endArrow=classic;html=1;rounded=0;" edge="1" parent="1">
          <mxGeometry width="50" height="50" relative="1" as="geometry">
            <mxPoint x="460" y="140" as="sourcePoint" />
            <mxPoint x="630" y="140" as="targetPoint" />
          </mxGeometry>
        </mxCell>
        <mxCell id="IUGxkRK6oalnHVLEm6Ad-56" value="createTrip()" style="edgeLabel;html=1;align=center;verticalAlign=middle;resizable=0;points=[];" connectable="0" vertex="1" parent="IUGxkRK6oalnHVLEm6Ad-55">
          <mxGeometry x="0.0118" y="-1" relative="1" as="geometry">
            <mxPoint as="offset" />
          </mxGeometry>
        </mxCell>
        <mxCell id="IUGxkRK6oalnHVLEm6Ad-57" value="" style="endArrow=classic;html=1;rounded=0;" edge="1" parent="1">
          <mxGeometry width="50" height="50" relative="1" as="geometry">
            <mxPoint x="630" y="160" as="sourcePoint" />
            <mxPoint x="760" y="160" as="targetPoint" />
          </mxGeometry>
        </mxCell>
        <mxCell id="IUGxkRK6oalnHVLEm6Ad-98" value="createTrip()" style="edgeLabel;html=1;align=center;verticalAlign=middle;resizable=0;points=[];" vertex="1" connectable="0" parent="IUGxkRK6oalnHVLEm6Ad-57">
          <mxGeometry x="-0.4677" y="1" relative="1" as="geometry">
            <mxPoint x="26" as="offset" />
          </mxGeometry>
        </mxCell>
        <mxCell id="IUGxkRK6oalnHVLEm6Ad-59" value="" style="endArrow=classic;html=1;rounded=0;" edge="1" parent="1">
          <mxGeometry width="50" height="50" relative="1" as="geometry">
            <mxPoint x="470" y="400" as="sourcePoint" />
            <mxPoint x="900" y="400" as="targetPoint" />
          </mxGeometry>
        </mxCell>
        <mxCell id="IUGxkRK6oalnHVLEm6Ad-60" value="clickPlusButton()" style="edgeLabel;html=1;align=center;verticalAlign=middle;resizable=0;points=[];" connectable="0" vertex="1" parent="IUGxkRK6oalnHVLEm6Ad-59">
          <mxGeometry x="0.0118" y="-1" relative="1" as="geometry">
            <mxPoint as="offset" />
          </mxGeometry>
        </mxCell>
        <mxCell id="IUGxkRK6oalnHVLEm6Ad-64" value="" style="endArrow=classic;html=1;rounded=0;" edge="1" parent="1">
          <mxGeometry width="50" height="50" relative="1" as="geometry">
            <mxPoint x="930" y="474.71" as="sourcePoint" />
            <mxPoint x="1060" y="475" as="targetPoint" />
          </mxGeometry>
        </mxCell>
        <mxCell id="IUGxkRK6oalnHVLEm6Ad-65" value="&lt;span style=&quot;font-size: 12px; text-align: left; text-wrap-mode: wrap; background-color: rgb(251, 251, 251);&quot;&gt;editTrip()&lt;/span&gt;" style="edgeLabel;html=1;align=center;verticalAlign=middle;resizable=0;points=[];" connectable="0" vertex="1" parent="IUGxkRK6oalnHVLEm6Ad-64">
          <mxGeometry x="0.0118" y="-1" relative="1" as="geometry">
            <mxPoint as="offset" />
          </mxGeometry>
        </mxCell>
        <mxCell id="IUGxkRK6oalnHVLEm6Ad-66" value="" style="endArrow=classic;html=1;rounded=0;" edge="1" parent="1">
          <mxGeometry width="50" height="50" relative="1" as="geometry">
            <mxPoint x="1060" y="490" as="sourcePoint" />
            <mxPoint x="1170" y="490" as="targetPoint" />
          </mxGeometry>
        </mxCell>
        <mxCell id="IUGxkRK6oalnHVLEm6Ad-67" value="&lt;span style=&quot;font-size: 12px; text-align: left; text-wrap-mode: wrap; background-color: rgb(251, 251, 251);&quot;&gt;setInterest()&lt;/span&gt;" style="edgeLabel;html=1;align=center;verticalAlign=middle;resizable=0;points=[];" connectable="0" vertex="1" parent="IUGxkRK6oalnHVLEm6Ad-66">
          <mxGeometry x="0.0118" y="-1" relative="1" as="geometry">
            <mxPoint as="offset" />
          </mxGeometry>
        </mxCell>
        <mxCell id="IUGxkRK6oalnHVLEm6Ad-86" value="[The user omitted destination/dates]" style="text;align=center;fontStyle=1;verticalAlign=middle;spacingLeft=3;spacingRight=3;strokeColor=none;rotatable=0;points=[[0,0.5],[1,0.5]];portConstraint=eastwest;html=1;" vertex="1" parent="1">
          <mxGeometry x="317" y="206" width="130" height="26" as="geometry" />
        </mxCell>
        <mxCell id="IUGxkRK6oalnHVLEm6Ad-88" value="" style="html=1;verticalAlign=bottom;labelBackgroundColor=none;endArrow=open;endFill=0;dashed=1;rounded=0;" edge="1" parent="1">
          <mxGeometry width="160" relative="1" as="geometry">
            <mxPoint x="630" y="246" as="sourcePoint" />
            <mxPoint x="470" y="246" as="targetPoint" />
          </mxGeometry>
        </mxCell>
        <mxCell id="IUGxkRK6oalnHVLEm6Ad-89" value="Text" style="edgeLabel;html=1;align=center;verticalAlign=middle;resizable=0;points=[];" connectable="0" vertex="1" parent="IUGxkRK6oalnHVLEm6Ad-88">
          <mxGeometry x="-0.0743" relative="1" as="geometry">
            <mxPoint as="offset" />
          </mxGeometry>
        </mxCell>
        <mxCell id="IUGxkRK6oalnHVLEm6Ad-90" value="returnFailMessage&lt;span style=&quot;color: light-dark(rgb(0, 0, 0), rgb(255, 255, 255)); background-color: light-dark(#ffffff, var(--ge-dark-color, #121212));&quot;&gt;()&lt;/span&gt;" style="edgeLabel;html=1;align=center;verticalAlign=middle;resizable=0;points=[];" connectable="0" vertex="1" parent="IUGxkRK6oalnHVLEm6Ad-88">
          <mxGeometry x="-0.0963" relative="1" as="geometry">
            <mxPoint as="offset" />
          </mxGeometry>
        </mxCell>
        <mxCell id="IUGxkRK6oalnHVLEm6Ad-91" value="" style="html=1;verticalAlign=bottom;labelBackgroundColor=none;endArrow=open;endFill=0;dashed=1;rounded=0;" edge="1" parent="1">
          <mxGeometry width="160" relative="1" as="geometry">
            <mxPoint x="750" y="316" as="sourcePoint" />
            <mxPoint x="630" y="316" as="targetPoint" />
          </mxGeometry>
        </mxCell>
        <mxCell id="IUGxkRK6oalnHVLEm6Ad-92" value="Text" style="edgeLabel;html=1;align=center;verticalAlign=middle;resizable=0;points=[];" connectable="0" vertex="1" parent="IUGxkRK6oalnHVLEm6Ad-91">
          <mxGeometry x="-0.0743" relative="1" as="geometry">
            <mxPoint as="offset" />
          </mxGeometry>
        </mxCell>
        <mxCell id="IUGxkRK6oalnHVLEm6Ad-93" value="returnTrip()" style="edgeLabel;html=1;align=center;verticalAlign=middle;resizable=0;points=[];" connectable="0" vertex="1" parent="IUGxkRK6oalnHVLEm6Ad-91">
          <mxGeometry x="-0.0963" relative="1" as="geometry">
            <mxPoint as="offset" />
          </mxGeometry>
        </mxCell>
        <mxCell id="IUGxkRK6oalnHVLEm6Ad-94" value="" style="html=1;verticalAlign=bottom;labelBackgroundColor=none;endArrow=open;endFill=0;dashed=1;rounded=0;" edge="1" parent="1">
          <mxGeometry width="160" relative="1" as="geometry">
            <mxPoint x="630" y="326" as="sourcePoint" />
            <mxPoint x="470" y="326" as="targetPoint" />
          </mxGeometry>
        </mxCell>
        <mxCell id="IUGxkRK6oalnHVLEm6Ad-95" value="Text" style="edgeLabel;html=1;align=center;verticalAlign=middle;resizable=0;points=[];" connectable="0" vertex="1" parent="IUGxkRK6oalnHVLEm6Ad-94">
          <mxGeometry x="-0.0743" relative="1" as="geometry">
            <mxPoint as="offset" />
          </mxGeometry>
        </mxCell>
        <mxCell id="IUGxkRK6oalnHVLEm6Ad-96" value="returnTrip()" style="edgeLabel;html=1;align=center;verticalAlign=middle;resizable=0;points=[];" connectable="0" vertex="1" parent="IUGxkRK6oalnHVLEm6Ad-94">
          <mxGeometry x="-0.0963" relative="1" as="geometry">
            <mxPoint as="offset" />
          </mxGeometry>
        </mxCell>
        <mxCell id="IUGxkRK6oalnHVLEm6Ad-99" value="" style="html=1;verticalAlign=bottom;labelBackgroundColor=none;endArrow=open;endFill=0;dashed=1;rounded=0;" edge="1" parent="1">
          <mxGeometry width="160" relative="1" as="geometry">
            <mxPoint x="462" y="256" as="sourcePoint" />
            <mxPoint x="290" y="256" as="targetPoint" />
          </mxGeometry>
        </mxCell>
        <mxCell id="IUGxkRK6oalnHVLEm6Ad-100" value="Text" style="edgeLabel;html=1;align=center;verticalAlign=middle;resizable=0;points=[];" connectable="0" vertex="1" parent="IUGxkRK6oalnHVLEm6Ad-99">
          <mxGeometry x="-0.0743" relative="1" as="geometry">
            <mxPoint as="offset" />
          </mxGeometry>
        </mxCell>
        <mxCell id="IUGxkRK6oalnHVLEm6Ad-101" value="show Fail Message" style="edgeLabel;html=1;align=center;verticalAlign=middle;resizable=0;points=[];" connectable="0" vertex="1" parent="IUGxkRK6oalnHVLEm6Ad-99">
          <mxGeometry x="-0.0963" relative="1" as="geometry">
            <mxPoint as="offset" />
          </mxGeometry>
        </mxCell>
        <mxCell id="IUGxkRK6oalnHVLEm6Ad-102" value="" style="html=1;verticalAlign=bottom;labelBackgroundColor=none;endArrow=open;endFill=0;dashed=1;rounded=0;" edge="1" parent="1">
          <mxGeometry width="160" relative="1" as="geometry">
            <mxPoint x="468" y="340" as="sourcePoint" />
            <mxPoint x="296" y="340" as="targetPoint" />
          </mxGeometry>
        </mxCell>
        <mxCell id="IUGxkRK6oalnHVLEm6Ad-103" value="Text" style="edgeLabel;html=1;align=center;verticalAlign=middle;resizable=0;points=[];" connectable="0" vertex="1" parent="IUGxkRK6oalnHVLEm6Ad-102">
          <mxGeometry x="-0.0743" relative="1" as="geometry">
            <mxPoint as="offset" />
          </mxGeometry>
        </mxCell>
        <mxCell id="IUGxkRK6oalnHVLEm6Ad-104" value="show Success Message" style="edgeLabel;html=1;align=center;verticalAlign=middle;resizable=0;points=[];" connectable="0" vertex="1" parent="IUGxkRK6oalnHVLEm6Ad-102">
          <mxGeometry x="-0.0963" relative="1" as="geometry">
            <mxPoint as="offset" />
          </mxGeometry>
        </mxCell>
        <mxCell id="IUGxkRK6oalnHVLEm6Ad-107" value="" style="html=1;points=[[0,0,0,0,5],[0,1,0,0,-5],[1,0,0,0,5],[1,1,0,0,-5]];perimeter=orthogonalPerimeter;outlineConnect=0;targetShapes=umlLifeline;portConstraint=eastwest;newEdgeStyle={&quot;curved&quot;:0,&quot;rounded&quot;:0};" vertex="1" parent="1">
          <mxGeometry x="900" y="400" width="10" height="700" as="geometry" />
        </mxCell>
        <mxCell id="IUGxkRK6oalnHVLEm6Ad-108" value="" style="html=1;points=[[0,0,0,0,5],[0,1,0,0,-5],[1,0,0,0,5],[1,1,0,0,-5]];perimeter=orthogonalPerimeter;outlineConnect=0;targetShapes=umlLifeline;portConstraint=eastwest;newEdgeStyle={&quot;curved&quot;:0,&quot;rounded&quot;:0};" vertex="1" parent="1">
          <mxGeometry x="910" y="420" width="10" height="100" as="geometry" />
        </mxCell>
        <mxCell id="IUGxkRK6oalnHVLEm6Ad-109" value="handleOptionSelection()" style="html=1;align=left;spacingLeft=2;endArrow=block;rounded=0;edgeStyle=orthogonalEdgeStyle;curved=0;rounded=0;" edge="1" parent="1" source="IUGxkRK6oalnHVLEm6Ad-107" target="IUGxkRK6oalnHVLEm6Ad-108">
          <mxGeometry relative="1" as="geometry">
            <mxPoint x="930" y="410" as="sourcePoint" />
            <Array as="points">
              <mxPoint x="940" y="410" />
              <mxPoint x="940" y="430" />
            </Array>
          </mxGeometry>
        </mxCell>
        <mxCell id="IUGxkRK6oalnHVLEm6Ad-111" value="" style="html=1;points=[[0,0,0,0,5],[0,1,0,0,-5],[1,0,0,0,5],[1,1,0,0,-5]];perimeter=orthogonalPerimeter;outlineConnect=0;targetShapes=umlLifeline;portConstraint=eastwest;newEdgeStyle={&quot;curved&quot;:0,&quot;rounded&quot;:0};" vertex="1" parent="1">
          <mxGeometry x="920" y="450" width="10" height="50" as="geometry" />
        </mxCell>
        <mxCell id="IUGxkRK6oalnHVLEm6Ad-113" value="&lt;span style=&quot;font-size: 12px; text-wrap-mode: wrap; background-color: rgb(251, 251, 251);&quot;&gt;handleInterest&lt;/span&gt;()" style="html=1;align=left;spacingLeft=2;endArrow=block;rounded=0;edgeStyle=orthogonalEdgeStyle;curved=0;rounded=0;" edge="1" parent="1">
          <mxGeometry relative="1" as="geometry">
            <mxPoint x="920" y="440" as="sourcePoint" />
            <Array as="points">
              <mxPoint x="950" y="440" />
              <mxPoint x="950" y="460" />
            </Array>
            <mxPoint x="930" y="460" as="targetPoint" />
          </mxGeometry>
        </mxCell>
        <mxCell id="IUGxkRK6oalnHVLEm6Ad-123" value="" style="endArrow=classic;html=1;rounded=0;" edge="1" parent="1">
          <mxGeometry width="50" height="50" relative="1" as="geometry">
            <mxPoint x="930" y="614.71" as="sourcePoint" />
            <mxPoint x="1060" y="615" as="targetPoint" />
          </mxGeometry>
        </mxCell>
        <mxCell id="IUGxkRK6oalnHVLEm6Ad-124" value="&lt;span style=&quot;font-size: 12px; text-align: left; text-wrap-mode: wrap; background-color: rgb(251, 251, 251);&quot;&gt;editTrip()&lt;/span&gt;" style="edgeLabel;html=1;align=center;verticalAlign=middle;resizable=0;points=[];" connectable="0" vertex="1" parent="IUGxkRK6oalnHVLEm6Ad-123">
          <mxGeometry x="0.0118" y="-1" relative="1" as="geometry">
            <mxPoint as="offset" />
          </mxGeometry>
        </mxCell>
        <mxCell id="IUGxkRK6oalnHVLEm6Ad-125" value="" style="endArrow=classic;html=1;rounded=0;" edge="1" parent="1">
          <mxGeometry width="50" height="50" relative="1" as="geometry">
            <mxPoint x="1060" y="630" as="sourcePoint" />
            <mxPoint x="1170" y="630" as="targetPoint" />
          </mxGeometry>
        </mxCell>
        <mxCell id="IUGxkRK6oalnHVLEm6Ad-126" value="&lt;span style=&quot;font-size: 12px; text-align: left; text-wrap-mode: wrap; background-color: rgb(251, 251, 251);&quot;&gt;setBudget()&lt;/span&gt;" style="edgeLabel;html=1;align=center;verticalAlign=middle;resizable=0;points=[];" connectable="0" vertex="1" parent="IUGxkRK6oalnHVLEm6Ad-125">
          <mxGeometry x="0.0118" y="-1" relative="1" as="geometry">
            <mxPoint as="offset" />
          </mxGeometry>
        </mxCell>
        <mxCell id="IUGxkRK6oalnHVLEm6Ad-127" value="" style="html=1;points=[[0,0,0,0,5],[0,1,0,0,-5],[1,0,0,0,5],[1,1,0,0,-5]];perimeter=orthogonalPerimeter;outlineConnect=0;targetShapes=umlLifeline;portConstraint=eastwest;newEdgeStyle={&quot;curved&quot;:0,&quot;rounded&quot;:0};" vertex="1" parent="1">
          <mxGeometry x="910" y="560" width="10" height="100" as="geometry" />
        </mxCell>
        <mxCell id="IUGxkRK6oalnHVLEm6Ad-128" value="handleOptionSelection()" style="html=1;align=left;spacingLeft=2;endArrow=block;rounded=0;edgeStyle=orthogonalEdgeStyle;curved=0;rounded=0;" edge="1" parent="1" target="IUGxkRK6oalnHVLEm6Ad-127">
          <mxGeometry relative="1" as="geometry">
            <mxPoint x="910" y="550" as="sourcePoint" />
            <Array as="points">
              <mxPoint x="940" y="550" />
              <mxPoint x="940" y="570" />
            </Array>
          </mxGeometry>
        </mxCell>
        <mxCell id="IUGxkRK6oalnHVLEm6Ad-129" value="" style="html=1;points=[[0,0,0,0,5],[0,1,0,0,-5],[1,0,0,0,5],[1,1,0,0,-5]];perimeter=orthogonalPerimeter;outlineConnect=0;targetShapes=umlLifeline;portConstraint=eastwest;newEdgeStyle={&quot;curved&quot;:0,&quot;rounded&quot;:0};" vertex="1" parent="1">
          <mxGeometry x="920" y="590" width="10" height="50" as="geometry" />
        </mxCell>
        <mxCell id="IUGxkRK6oalnHVLEm6Ad-130" value="&lt;span style=&quot;font-size: 12px; text-wrap-mode: wrap; background-color: rgb(251, 251, 251);&quot;&gt;handleBudget&lt;/span&gt;()" style="html=1;align=left;spacingLeft=2;endArrow=block;rounded=0;edgeStyle=orthogonalEdgeStyle;curved=0;rounded=0;" edge="1" parent="1">
          <mxGeometry relative="1" as="geometry">
            <mxPoint x="920" y="580" as="sourcePoint" />
            <Array as="points">
              <mxPoint x="950" y="580" />
              <mxPoint x="950" y="600" />
            </Array>
            <mxPoint x="930" y="600" as="targetPoint" />
          </mxGeometry>
        </mxCell>
        <mxCell id="IUGxkRK6oalnHVLEm6Ad-131" value="" style="endArrow=classic;html=1;rounded=0;" edge="1" parent="1">
          <mxGeometry width="50" height="50" relative="1" as="geometry">
            <mxPoint x="930" y="744.71" as="sourcePoint" />
            <mxPoint x="1060" y="745" as="targetPoint" />
          </mxGeometry>
        </mxCell>
        <mxCell id="IUGxkRK6oalnHVLEm6Ad-132" value="&lt;span style=&quot;font-size: 12px; text-align: left; text-wrap-mode: wrap; background-color: rgb(251, 251, 251);&quot;&gt;editTrip()&lt;/span&gt;" style="edgeLabel;html=1;align=center;verticalAlign=middle;resizable=0;points=[];" connectable="0" vertex="1" parent="IUGxkRK6oalnHVLEm6Ad-131">
          <mxGeometry x="0.0118" y="-1" relative="1" as="geometry">
            <mxPoint as="offset" />
          </mxGeometry>
        </mxCell>
        <mxCell id="IUGxkRK6oalnHVLEm6Ad-133" value="" style="endArrow=classic;html=1;rounded=0;" edge="1" parent="1">
          <mxGeometry width="50" height="50" relative="1" as="geometry">
            <mxPoint x="1060" y="760" as="sourcePoint" />
            <mxPoint x="1170" y="760" as="targetPoint" />
          </mxGeometry>
        </mxCell>
        <mxCell id="IUGxkRK6oalnHVLEm6Ad-134" value="&lt;span style=&quot;font-size: 12px; text-align: left; text-wrap-mode: wrap; background-color: rgb(251, 251, 251);&quot;&gt;setAccomodation()&lt;/span&gt;" style="edgeLabel;html=1;align=center;verticalAlign=middle;resizable=0;points=[];" connectable="0" vertex="1" parent="IUGxkRK6oalnHVLEm6Ad-133">
          <mxGeometry x="0.0118" y="-1" relative="1" as="geometry">
            <mxPoint y="-11" as="offset" />
          </mxGeometry>
        </mxCell>
        <mxCell id="IUGxkRK6oalnHVLEm6Ad-135" value="" style="html=1;points=[[0,0,0,0,5],[0,1,0,0,-5],[1,0,0,0,5],[1,1,0,0,-5]];perimeter=orthogonalPerimeter;outlineConnect=0;targetShapes=umlLifeline;portConstraint=eastwest;newEdgeStyle={&quot;curved&quot;:0,&quot;rounded&quot;:0};" vertex="1" parent="1">
          <mxGeometry x="910" y="690" width="10" height="100" as="geometry" />
        </mxCell>
        <mxCell id="IUGxkRK6oalnHVLEm6Ad-136" value="handleOptionSelection()" style="html=1;align=left;spacingLeft=2;endArrow=block;rounded=0;edgeStyle=orthogonalEdgeStyle;curved=0;rounded=0;" edge="1" parent="1" target="IUGxkRK6oalnHVLEm6Ad-135">
          <mxGeometry relative="1" as="geometry">
            <mxPoint x="910" y="680" as="sourcePoint" />
            <Array as="points">
              <mxPoint x="940" y="680" />
              <mxPoint x="940" y="700" />
            </Array>
          </mxGeometry>
        </mxCell>
        <mxCell id="IUGxkRK6oalnHVLEm6Ad-137" value="" style="html=1;points=[[0,0,0,0,5],[0,1,0,0,-5],[1,0,0,0,5],[1,1,0,0,-5]];perimeter=orthogonalPerimeter;outlineConnect=0;targetShapes=umlLifeline;portConstraint=eastwest;newEdgeStyle={&quot;curved&quot;:0,&quot;rounded&quot;:0};" vertex="1" parent="1">
          <mxGeometry x="920" y="720" width="10" height="50" as="geometry" />
        </mxCell>
        <mxCell id="IUGxkRK6oalnHVLEm6Ad-138" value="&lt;span style=&quot;font-size: 12px; text-wrap-mode: wrap; background-color: rgb(251, 251, 251);&quot;&gt;handleAccomodation&lt;/span&gt;()" style="html=1;align=left;spacingLeft=2;endArrow=block;rounded=0;edgeStyle=orthogonalEdgeStyle;curved=0;rounded=0;" edge="1" parent="1">
          <mxGeometry relative="1" as="geometry">
            <mxPoint x="920" y="710" as="sourcePoint" />
            <Array as="points">
              <mxPoint x="950" y="710" />
              <mxPoint x="950" y="730" />
            </Array>
            <mxPoint x="930" y="730" as="targetPoint" />
          </mxGeometry>
        </mxCell>
        <mxCell id="IUGxkRK6oalnHVLEm6Ad-139" value="" style="endArrow=classic;html=1;rounded=0;" edge="1" parent="1">
          <mxGeometry width="50" height="50" relative="1" as="geometry">
            <mxPoint x="930" y="884.71" as="sourcePoint" />
            <mxPoint x="1060" y="885" as="targetPoint" />
          </mxGeometry>
        </mxCell>
        <mxCell id="IUGxkRK6oalnHVLEm6Ad-140" value="&lt;span style=&quot;font-size: 12px; text-align: left; text-wrap-mode: wrap; background-color: rgb(251, 251, 251);&quot;&gt;editTrip()&lt;/span&gt;" style="edgeLabel;html=1;align=center;verticalAlign=middle;resizable=0;points=[];" connectable="0" vertex="1" parent="IUGxkRK6oalnHVLEm6Ad-139">
          <mxGeometry x="0.0118" y="-1" relative="1" as="geometry">
            <mxPoint as="offset" />
          </mxGeometry>
        </mxCell>
        <mxCell id="IUGxkRK6oalnHVLEm6Ad-141" value="" style="endArrow=classic;html=1;rounded=0;" edge="1" parent="1">
          <mxGeometry width="50" height="50" relative="1" as="geometry">
            <mxPoint x="1060" y="900" as="sourcePoint" />
            <mxPoint x="1170" y="900" as="targetPoint" />
          </mxGeometry>
        </mxCell>
        <mxCell id="IUGxkRK6oalnHVLEm6Ad-142" value="&lt;span style=&quot;font-size: 12px; text-align: left; text-wrap-mode: wrap; background-color: rgb(251, 251, 251);&quot;&gt;setPurpose()&lt;/span&gt;" style="edgeLabel;html=1;align=center;verticalAlign=middle;resizable=0;points=[];" connectable="0" vertex="1" parent="IUGxkRK6oalnHVLEm6Ad-141">
          <mxGeometry x="0.0118" y="-1" relative="1" as="geometry">
            <mxPoint as="offset" />
          </mxGeometry>
        </mxCell>
        <mxCell id="IUGxkRK6oalnHVLEm6Ad-143" value="" style="html=1;points=[[0,0,0,0,5],[0,1,0,0,-5],[1,0,0,0,5],[1,1,0,0,-5]];perimeter=orthogonalPerimeter;outlineConnect=0;targetShapes=umlLifeline;portConstraint=eastwest;newEdgeStyle={&quot;curved&quot;:0,&quot;rounded&quot;:0};" vertex="1" parent="1">
          <mxGeometry x="910" y="830" width="10" height="100" as="geometry" />
        </mxCell>
        <mxCell id="IUGxkRK6oalnHVLEm6Ad-144" value="handleOptionSelection()" style="html=1;align=left;spacingLeft=2;endArrow=block;rounded=0;edgeStyle=orthogonalEdgeStyle;curved=0;rounded=0;" edge="1" parent="1" target="IUGxkRK6oalnHVLEm6Ad-143">
          <mxGeometry relative="1" as="geometry">
            <mxPoint x="910" y="820" as="sourcePoint" />
            <Array as="points">
              <mxPoint x="940" y="820" />
              <mxPoint x="940" y="840" />
            </Array>
          </mxGeometry>
        </mxCell>
        <mxCell id="IUGxkRK6oalnHVLEm6Ad-145" value="" style="html=1;points=[[0,0,0,0,5],[0,1,0,0,-5],[1,0,0,0,5],[1,1,0,0,-5]];perimeter=orthogonalPerimeter;outlineConnect=0;targetShapes=umlLifeline;portConstraint=eastwest;newEdgeStyle={&quot;curved&quot;:0,&quot;rounded&quot;:0};" vertex="1" parent="1">
          <mxGeometry x="920" y="860" width="10" height="50" as="geometry" />
        </mxCell>
        <mxCell id="IUGxkRK6oalnHVLEm6Ad-146" value="&lt;span style=&quot;font-size: 12px; text-wrap-mode: wrap; background-color: rgb(251, 251, 251);&quot;&gt;handle&lt;/span&gt;&lt;span style=&quot;font-size: 12px; text-wrap-mode: wrap; background-color: rgb(251, 251, 251);&quot;&gt;Purpose&lt;/span&gt;()" style="html=1;align=left;spacingLeft=2;endArrow=block;rounded=0;edgeStyle=orthogonalEdgeStyle;curved=0;rounded=0;" edge="1" parent="1">
          <mxGeometry relative="1" as="geometry">
            <mxPoint x="920" y="850" as="sourcePoint" />
            <Array as="points">
              <mxPoint x="950" y="850" />
              <mxPoint x="950" y="870" />
            </Array>
            <mxPoint x="930" y="870" as="targetPoint" />
          </mxGeometry>
        </mxCell>
        <mxCell id="IUGxkRK6oalnHVLEm6Ad-148" value="" style="endArrow=classic;html=1;rounded=0;" edge="1" parent="1">
          <mxGeometry width="50" height="50" relative="1" as="geometry">
            <mxPoint x="930" y="1024.71" as="sourcePoint" />
            <mxPoint x="1060" y="1025" as="targetPoint" />
          </mxGeometry>
        </mxCell>
        <mxCell id="IUGxkRK6oalnHVLEm6Ad-149" value="&lt;span style=&quot;font-size: 12px; text-align: left; text-wrap-mode: wrap; background-color: rgb(251, 251, 251);&quot;&gt;editTrip()&lt;/span&gt;" style="edgeLabel;html=1;align=center;verticalAlign=middle;resizable=0;points=[];" connectable="0" vertex="1" parent="IUGxkRK6oalnHVLEm6Ad-148">
          <mxGeometry x="0.0118" y="-1" relative="1" as="geometry">
            <mxPoint as="offset" />
          </mxGeometry>
        </mxCell>
        <mxCell id="IUGxkRK6oalnHVLEm6Ad-150" value="" style="endArrow=classic;html=1;rounded=0;" edge="1" parent="1">
          <mxGeometry width="50" height="50" relative="1" as="geometry">
            <mxPoint x="1060" y="1040" as="sourcePoint" />
            <mxPoint x="1170" y="1040" as="targetPoint" />
          </mxGeometry>
        </mxCell>
        <mxCell id="IUGxkRK6oalnHVLEm6Ad-151" value="&lt;span style=&quot;font-size: 12px; text-align: left; text-wrap-mode: wrap; background-color: rgb(251, 251, 251);&quot;&gt;setTransportation()&lt;/span&gt;" style="edgeLabel;html=1;align=center;verticalAlign=middle;resizable=0;points=[];" connectable="0" vertex="1" parent="IUGxkRK6oalnHVLEm6Ad-150">
          <mxGeometry x="0.0118" y="-1" relative="1" as="geometry">
            <mxPoint x="4" y="-11" as="offset" />
          </mxGeometry>
        </mxCell>
        <mxCell id="IUGxkRK6oalnHVLEm6Ad-152" value="" style="html=1;points=[[0,0,0,0,5],[0,1,0,0,-5],[1,0,0,0,5],[1,1,0,0,-5]];perimeter=orthogonalPerimeter;outlineConnect=0;targetShapes=umlLifeline;portConstraint=eastwest;newEdgeStyle={&quot;curved&quot;:0,&quot;rounded&quot;:0};" vertex="1" parent="1">
          <mxGeometry x="910" y="970" width="10" height="100" as="geometry" />
        </mxCell>
        <mxCell id="IUGxkRK6oalnHVLEm6Ad-153" value="handleOptionSelection()" style="html=1;align=left;spacingLeft=2;endArrow=block;rounded=0;edgeStyle=orthogonalEdgeStyle;curved=0;rounded=0;" edge="1" parent="1" target="IUGxkRK6oalnHVLEm6Ad-152">
          <mxGeometry relative="1" as="geometry">
            <mxPoint x="910" y="960" as="sourcePoint" />
            <Array as="points">
              <mxPoint x="940" y="960" />
              <mxPoint x="940" y="980" />
            </Array>
          </mxGeometry>
        </mxCell>
        <mxCell id="IUGxkRK6oalnHVLEm6Ad-154" value="" style="html=1;points=[[0,0,0,0,5],[0,1,0,0,-5],[1,0,0,0,5],[1,1,0,0,-5]];perimeter=orthogonalPerimeter;outlineConnect=0;targetShapes=umlLifeline;portConstraint=eastwest;newEdgeStyle={&quot;curved&quot;:0,&quot;rounded&quot;:0};" vertex="1" parent="1">
          <mxGeometry x="920" y="1000" width="10" height="50" as="geometry" />
        </mxCell>
        <mxCell id="IUGxkRK6oalnHVLEm6Ad-155" value="&lt;span style=&quot;font-size: 12px; text-wrap-mode: wrap; background-color: rgb(251, 251, 251);&quot;&gt;handle&lt;/span&gt;&lt;span style=&quot;font-size: 12px; text-wrap-mode: wrap; background-color: rgb(251, 251, 251);&quot;&gt;Transportation&lt;/span&gt;()" style="html=1;align=left;spacingLeft=2;endArrow=block;rounded=0;edgeStyle=orthogonalEdgeStyle;curved=0;rounded=0;" edge="1" parent="1">
          <mxGeometry relative="1" as="geometry">
            <mxPoint x="920" y="990" as="sourcePoint" />
            <Array as="points">
              <mxPoint x="950" y="990" />
              <mxPoint x="950" y="1010" />
            </Array>
            <mxPoint x="930" y="1010" as="targetPoint" />
          </mxGeometry>
        </mxCell>
        <mxCell id="IUGxkRK6oalnHVLEm6Ad-156" value="" style="html=1;verticalAlign=bottom;labelBackgroundColor=none;endArrow=open;endFill=0;dashed=1;rounded=0;" edge="1" parent="1">
          <mxGeometry width="160" relative="1" as="geometry">
            <mxPoint x="900" y="1110" as="sourcePoint" />
            <mxPoint x="460" y="1110" as="targetPoint" />
          </mxGeometry>
        </mxCell>
        <mxCell id="IUGxkRK6oalnHVLEm6Ad-157" value="Text" style="edgeLabel;html=1;align=center;verticalAlign=middle;resizable=0;points=[];" connectable="0" vertex="1" parent="IUGxkRK6oalnHVLEm6Ad-156">
          <mxGeometry x="-0.0743" relative="1" as="geometry">
            <mxPoint as="offset" />
          </mxGeometry>
        </mxCell>
        <mxCell id="IUGxkRK6oalnHVLEm6Ad-158" value="returnSuccessMessage()" style="edgeLabel;html=1;align=center;verticalAlign=middle;resizable=0;points=[];" connectable="0" vertex="1" parent="IUGxkRK6oalnHVLEm6Ad-156">
          <mxGeometry x="-0.0963" relative="1" as="geometry">
            <mxPoint as="offset" />
          </mxGeometry>
        </mxCell>
        <mxCell id="IUGxkRK6oalnHVLEm6Ad-159" value="" style="endArrow=none;dashed=1;html=1;rounded=0;entryX=0.5;entryY=1;entryDx=0;entryDy=0;" edge="1" parent="1" target="IUGxkRK6oalnHVLEm6Ad-2">
          <mxGeometry width="50" height="50" relative="1" as="geometry">
            <mxPoint x="630" y="1320" as="sourcePoint" />
            <mxPoint x="630" y="60" as="targetPoint" />
            <Array as="points">
              <mxPoint x="630" y="230" />
            </Array>
          </mxGeometry>
        </mxCell>
        <mxCell id="IUGxkRK6oalnHVLEm6Ad-166" value="" style="html=1;verticalAlign=bottom;labelBackgroundColor=none;endArrow=open;endFill=0;dashed=1;rounded=0;" edge="1" parent="1">
          <mxGeometry width="160" relative="1" as="geometry">
            <mxPoint x="1170" y="510" as="sourcePoint" />
            <mxPoint x="1050" y="510" as="targetPoint" />
          </mxGeometry>
        </mxCell>
        <mxCell id="IUGxkRK6oalnHVLEm6Ad-168" value="&lt;span style=&quot;font-size: 12px; text-align: left; text-wrap-mode: wrap; background-color: rgb(251, 251, 251);&quot;&gt;getInterest()&lt;/span&gt;" style="edgeLabel;html=1;align=center;verticalAlign=middle;resizable=0;points=[];" connectable="0" vertex="1" parent="IUGxkRK6oalnHVLEm6Ad-166">
          <mxGeometry x="-0.0963" relative="1" as="geometry">
            <mxPoint as="offset" />
          </mxGeometry>
        </mxCell>
        <mxCell id="IUGxkRK6oalnHVLEm6Ad-169" value="" style="html=1;verticalAlign=bottom;labelBackgroundColor=none;endArrow=open;endFill=0;dashed=1;rounded=0;" edge="1" parent="1">
          <mxGeometry width="160" relative="1" as="geometry">
            <mxPoint x="1060" y="530" as="sourcePoint" />
            <mxPoint x="910" y="530" as="targetPoint" />
          </mxGeometry>
        </mxCell>
        <mxCell id="IUGxkRK6oalnHVLEm6Ad-170" value="returnSuccessMessage()" style="edgeLabel;html=1;align=center;verticalAlign=middle;resizable=0;points=[];" connectable="0" vertex="1" parent="IUGxkRK6oalnHVLEm6Ad-169">
          <mxGeometry x="-0.0743" relative="1" as="geometry">
            <mxPoint as="offset" />
          </mxGeometry>
        </mxCell>
        <mxCell id="IUGxkRK6oalnHVLEm6Ad-177" value="" style="html=1;verticalAlign=bottom;labelBackgroundColor=none;endArrow=open;endFill=0;dashed=1;rounded=0;" edge="1" parent="1">
          <mxGeometry width="160" relative="1" as="geometry">
            <mxPoint x="1170" y="650" as="sourcePoint" />
            <mxPoint x="1050" y="650" as="targetPoint" />
          </mxGeometry>
        </mxCell>
        <mxCell id="IUGxkRK6oalnHVLEm6Ad-179" value="&lt;span style=&quot;font-size: 12px; text-align: left; text-wrap-mode: wrap; background-color: rgb(251, 251, 251);&quot;&gt;getBudget()&lt;/span&gt;" style="edgeLabel;html=1;align=center;verticalAlign=middle;resizable=0;points=[];" connectable="0" vertex="1" parent="IUGxkRK6oalnHVLEm6Ad-177">
          <mxGeometry x="-0.0963" relative="1" as="geometry">
            <mxPoint x="4" as="offset" />
          </mxGeometry>
        </mxCell>
        <mxCell id="IUGxkRK6oalnHVLEm6Ad-180" value="" style="html=1;verticalAlign=bottom;labelBackgroundColor=none;endArrow=open;endFill=0;dashed=1;rounded=0;" edge="1" parent="1">
          <mxGeometry width="160" relative="1" as="geometry">
            <mxPoint x="1060" y="670" as="sourcePoint" />
            <mxPoint x="910" y="670" as="targetPoint" />
          </mxGeometry>
        </mxCell>
        <mxCell id="IUGxkRK6oalnHVLEm6Ad-181" value="returnSuccessMessage()" style="edgeLabel;html=1;align=center;verticalAlign=middle;resizable=0;points=[];" connectable="0" vertex="1" parent="IUGxkRK6oalnHVLEm6Ad-180">
          <mxGeometry x="-0.0743" relative="1" as="geometry">
            <mxPoint as="offset" />
          </mxGeometry>
        </mxCell>
        <mxCell id="IUGxkRK6oalnHVLEm6Ad-183" value="" style="html=1;verticalAlign=bottom;labelBackgroundColor=none;endArrow=open;endFill=0;dashed=1;rounded=0;" edge="1" parent="1">
          <mxGeometry width="160" relative="1" as="geometry">
            <mxPoint x="1170" y="780" as="sourcePoint" />
            <mxPoint x="1050" y="780" as="targetPoint" />
          </mxGeometry>
        </mxCell>
        <mxCell id="IUGxkRK6oalnHVLEm6Ad-185" value="&lt;span style=&quot;font-size: 12px; text-align: left; text-wrap-mode: wrap; background-color: rgb(251, 251, 251);&quot;&gt;getAccomodation()&lt;/span&gt;" style="edgeLabel;html=1;align=center;verticalAlign=middle;resizable=0;points=[];" connectable="0" vertex="1" parent="IUGxkRK6oalnHVLEm6Ad-183">
          <mxGeometry x="-0.0963" relative="1" as="geometry">
            <mxPoint y="-10" as="offset" />
          </mxGeometry>
        </mxCell>
        <mxCell id="IUGxkRK6oalnHVLEm6Ad-186" value="" style="html=1;verticalAlign=bottom;labelBackgroundColor=none;endArrow=open;endFill=0;dashed=1;rounded=0;" edge="1" parent="1">
          <mxGeometry width="160" relative="1" as="geometry">
            <mxPoint x="1060" y="800" as="sourcePoint" />
            <mxPoint x="910" y="800" as="targetPoint" />
          </mxGeometry>
        </mxCell>
        <mxCell id="IUGxkRK6oalnHVLEm6Ad-187" value="returnSuccessMessage()" style="edgeLabel;html=1;align=center;verticalAlign=middle;resizable=0;points=[];" connectable="0" vertex="1" parent="IUGxkRK6oalnHVLEm6Ad-186">
          <mxGeometry x="-0.0743" relative="1" as="geometry">
            <mxPoint as="offset" />
          </mxGeometry>
        </mxCell>
        <mxCell id="IUGxkRK6oalnHVLEm6Ad-188" value="" style="html=1;verticalAlign=bottom;labelBackgroundColor=none;endArrow=open;endFill=0;dashed=1;rounded=0;" edge="1" parent="1">
          <mxGeometry width="160" relative="1" as="geometry">
            <mxPoint x="1170" y="920" as="sourcePoint" />
            <mxPoint x="1050" y="920" as="targetPoint" />
          </mxGeometry>
        </mxCell>
        <mxCell id="IUGxkRK6oalnHVLEm6Ad-190" value="&lt;span style=&quot;font-size: 12px; text-align: left; text-wrap-mode: wrap; background-color: rgb(251, 251, 251);&quot;&gt;getPurpose()&lt;/span&gt;" style="edgeLabel;html=1;align=center;verticalAlign=middle;resizable=0;points=[];" connectable="0" vertex="1" parent="IUGxkRK6oalnHVLEm6Ad-188">
          <mxGeometry x="-0.0963" relative="1" as="geometry">
            <mxPoint as="offset" />
          </mxGeometry>
        </mxCell>
        <mxCell id="IUGxkRK6oalnHVLEm6Ad-191" value="" style="html=1;verticalAlign=bottom;labelBackgroundColor=none;endArrow=open;endFill=0;dashed=1;rounded=0;" edge="1" parent="1">
          <mxGeometry width="160" relative="1" as="geometry">
            <mxPoint x="1060" y="940" as="sourcePoint" />
            <mxPoint x="910" y="940" as="targetPoint" />
          </mxGeometry>
        </mxCell>
        <mxCell id="IUGxkRK6oalnHVLEm6Ad-192" value="returnSuccessMessage()" style="edgeLabel;html=1;align=center;verticalAlign=middle;resizable=0;points=[];" connectable="0" vertex="1" parent="IUGxkRK6oalnHVLEm6Ad-191">
          <mxGeometry x="-0.0743" relative="1" as="geometry">
            <mxPoint as="offset" />
          </mxGeometry>
        </mxCell>
        <mxCell id="IUGxkRK6oalnHVLEm6Ad-193" value="" style="html=1;verticalAlign=bottom;labelBackgroundColor=none;endArrow=open;endFill=0;dashed=1;rounded=0;" edge="1" parent="1">
          <mxGeometry width="160" relative="1" as="geometry">
            <mxPoint x="1170" y="1059.43" as="sourcePoint" />
            <mxPoint x="1050" y="1059.43" as="targetPoint" />
          </mxGeometry>
        </mxCell>
        <mxCell id="IUGxkRK6oalnHVLEm6Ad-195" value="&lt;span style=&quot;font-size: 12px; text-align: left; text-wrap-mode: wrap; background-color: rgb(251, 251, 251);&quot;&gt;getTransportation()&lt;/span&gt;" style="edgeLabel;html=1;align=center;verticalAlign=middle;resizable=0;points=[];" connectable="0" vertex="1" parent="IUGxkRK6oalnHVLEm6Ad-193">
          <mxGeometry x="-0.0963" relative="1" as="geometry">
            <mxPoint y="1" as="offset" />
          </mxGeometry>
        </mxCell>
        <mxCell id="IUGxkRK6oalnHVLEm6Ad-196" value="" style="html=1;verticalAlign=bottom;labelBackgroundColor=none;endArrow=open;endFill=0;dashed=1;rounded=0;" edge="1" parent="1">
          <mxGeometry width="160" relative="1" as="geometry">
            <mxPoint x="1060" y="1079.43" as="sourcePoint" />
            <mxPoint x="910" y="1079.43" as="targetPoint" />
          </mxGeometry>
        </mxCell>
        <mxCell id="IUGxkRK6oalnHVLEm6Ad-197" value="returnSuccessMessage()" style="edgeLabel;html=1;align=center;verticalAlign=middle;resizable=0;points=[];" connectable="0" vertex="1" parent="IUGxkRK6oalnHVLEm6Ad-196">
          <mxGeometry x="-0.0743" relative="1" as="geometry">
            <mxPoint as="offset" />
          </mxGeometry>
        </mxCell>
        <mxCell id="IUGxkRK6oalnHVLEm6Ad-199" value="" style="html=1;verticalAlign=bottom;labelBackgroundColor=none;endArrow=open;endFill=0;dashed=1;rounded=0;" edge="1" parent="1">
          <mxGeometry width="160" relative="1" as="geometry">
            <mxPoint x="468" y="1130" as="sourcePoint" />
            <mxPoint x="296" y="1130" as="targetPoint" />
          </mxGeometry>
        </mxCell>
        <mxCell id="IUGxkRK6oalnHVLEm6Ad-200" value="Text" style="edgeLabel;html=1;align=center;verticalAlign=middle;resizable=0;points=[];" connectable="0" vertex="1" parent="IUGxkRK6oalnHVLEm6Ad-199">
          <mxGeometry x="-0.0743" relative="1" as="geometry">
            <mxPoint as="offset" />
          </mxGeometry>
        </mxCell>
        <mxCell id="IUGxkRK6oalnHVLEm6Ad-201" value="show Success Message" style="edgeLabel;html=1;align=center;verticalAlign=middle;resizable=0;points=[];" connectable="0" vertex="1" parent="IUGxkRK6oalnHVLEm6Ad-199">
          <mxGeometry x="-0.0963" relative="1" as="geometry">
            <mxPoint as="offset" />
          </mxGeometry>
        </mxCell>
      </root>
    </mxGraphModel>
  </diagram>
</mxfile>
